<svg xmlns="http://www.w3.org/2000/svg" viewBox="0 0 123.38 124.11"><defs><style>.cls-1{fill:#f6f6f6;}</style></defs><g id="Capa_2" data-name="Capa 2"><g id="Capa_1-2" data-name="Capa 1"><path class="cls-1" d="M19.19,117.68H45.91c0-7.38,0-14.64,0-21.91,0-7.64,0-7.66,7.44-7.66,6.33,0,12.67.12,19,0,3.66-.08,5.12,1.44,5.06,5.05-.12,6.67.21,13.35-.12,20-.21,4.13,1.35,5.16,5.16,5a169.11,169.11,0,0,1,17,0c3.85.2,4.8-1.26,4.76-4.9-.17-15.17-.08-30.35-.07-45.53,0-1.33-.28-2.86.27-3.93s2-2.52,3-2.46,2.15,1.62,2.8,2.77c.44.76.13,2,.13,3,0,17-.13,34,.08,51,.06,4.67-1.61,6.16-6.11,6q-13.74-.34-27.5,0c-4.48.13-5.86-1.74-5.76-5.92.18-7.65,0-15.3,0-23.34H52.21c0,7.18,0,14.44,0,21.7,0,7.44-.06,7.48-7.58,7.48-8.84,0-17.67-.11-26.51,0-3.88.06-5.28-1.49-5.26-5.35.12-17.51,0-35,.19-52.53,0-1.72,2.05-3.41,3.15-5.12,1,1.81,2.83,3.6,2.86,5.43.24,15.17.14,30.35.14,45.52Z"/><path class="cls-1" d="M62.52,6.2C48.87,20,36.25,32.81,23.6,45.58Q15,54.28,6.29,62.89c-1.72,1.7-3.67,4.43-6,1.6-.75-.89.26-4.39,1.51-5.65,18.71-19,37.62-37.76,56.4-56.67,2.86-2.89,5-2.9,7.91,0,18.53,18.68,37.22,37.2,55.71,55.93,1.16,1.17,2,4.35,1.33,5.31-2,2.7-4,.57-5.71-1.11Q92.5,37.41,67.62,12.47C66,10.83,64.67,8.87,62.52,6.2Z"/></g></g></svg>